<?xml version="1.0" encoding="UTF-8"?>
<svg xmlns="http://www.w3.org/2000/svg" width="800" height="400" viewBox="0 0 800 400">
  <defs>
    <linearGradient id="gradBg_bugatti_veyron" x1="0%" y1="0%" x2="0%" y2="100%">
      <stop offset="0%" style="stop-color:#0f172a;stop-opacity:1" />
      <stop offset="100%" style="stop-color:#1e293b;stop-opacity:1" />
    </linearGradient>
    <linearGradient id="gradBody_bugatti_veyron" x1="0%" y1="0%" x2="0%" y2="100%">
      <stop offset="0%" style="stop-color:#f59e0b;stop-opacity:0.95" />
      <stop offset="100%" style="stop-color:#f59e0b;stop-opacity:0.5" />
    </linearGradient>
    <linearGradient id="gradWindow_bugatti_veyron" x1="0%" y1="0%" x2="0%" y2="100%">
      <stop offset="0%" style="stop-color:#1e3a5f;stop-opacity:0.92" />
      <stop offset="100%" style="stop-color:#0f172a;stop-opacity:0.92" />
    </linearGradient>
    <radialGradient id="gradShadow_bugatti_veyron" cx="50%" cy="50%" r="50%">
      <stop offset="0%" style="stop-color:#000000;stop-opacity:0.5" />
      <stop offset="100%" style="stop-color:#000000;stop-opacity:0" />
    </radialGradient>
    <linearGradient id="gradRim_bugatti_veyron" x1="0%" y1="0%" x2="100%" y2="100%">
      <stop offset="0%" style="stop-color:#e2e8f0;stop-opacity:1" />
      <stop offset="50%" style="stop-color:#94a3b8;stop-opacity:1" />
      <stop offset="100%" style="stop-color:#64748b;stop-opacity:1" />
    </linearGradient>
  </defs>
  <rect width="800" height="400" fill="url(#gradBg_bugatti_veyron)" />
  <ellipse cx="400.0" cy="358" rx="336.0" ry="7" fill="url(#gradShadow_bugatti_veyron)" />
  <line x1="20" y1="351" x2="780" y2="351" stroke="rgba(245,158,11,0.3)" stroke-width="1" />
  <path d="M50,335.8807709547288 Q99.41730165844913,263.15105333930967 170.01344688480503,223.1497086508292 L285.320484087853,223.1497086508292 L285.320484087853,197.69430748543252 L327.4610472255121,154.05647691618105 L498.63191312418587,154.05647691618105 L539.8029666960415,197.69430748543252 L539.8029666960415,215.87673688928726 Q636.3872702823846,257.69632451815323 696.5351860152398,321.33482743164495 L750.0,335.8807709547288 L677.8148812191843,331.8807709547288 Q616.3379650380996,394.005378753922 554.8610488570149,331.8807709547288 L252.66920663379653,331.8807709547288 Q191.1922904527118,394.005378753922 129.71537427162707,331.8807709547288 L50,331.8807709547288 Z" fill="url(#gradBody_bugatti_veyron)" stroke="#f59e0b" stroke-width="1.5" stroke-linejoin="round" />
  <path d="M285.320484087853,197.69430748543252 L327.4610472255121,154.05647691618105 L498.63191312418587,154.05647691618105 L539.8029666960415,197.69430748543252 Z" fill="url(#gradWindow_bugatti_veyron)" stroke="rgba(245,158,11,0.6)" stroke-width="0.6" stroke-linejoin="round" />
  <circle cx="191.1922904527118" cy="293.52308381891527" r="56.47691618108472" fill="#020617" stroke="#000000" stroke-width="2" />
  <circle cx="191.1922904527118" cy="293.52308381891527" r="31.062303899596596" fill="url(#gradRim_bugatti_veyron)" stroke="#334155" stroke-width="1" />
  <circle cx="191.1922904527118" cy="293.52308381891527" r="12.424921559838639" fill="#1e293b" stroke="#0f172a" stroke-width="0.5" />
  <circle cx="191.1922904527118" cy="293.52308381891527" r="5.0829224562976245" fill="#f59e0b" />
  <circle cx="616.3379650380996" cy="293.52308381891527" r="56.47691618108472" fill="#020617" stroke="#000000" stroke-width="2" />
  <circle cx="616.3379650380996" cy="293.52308381891527" r="31.062303899596596" fill="url(#gradRim_bugatti_veyron)" stroke="#334155" stroke-width="1" />
  <circle cx="616.3379650380996" cy="293.52308381891527" r="12.424921559838639" fill="#1e293b" stroke="#0f172a" stroke-width="0.5" />
  <circle cx="616.3379650380996" cy="293.52308381891527" r="5.0829224562976245" fill="#f59e0b" />
  <text x="776" y="385" text-anchor="end" fill="#f59e0b" font-family="monospace" font-size="13" font-weight="bold">Bugatti - Veyron  L:4462mm</text>
</svg>